<?xml version="1.0" standalone="no"?>
<!DOCTYPE svg PUBLIC "-//W3C//DTD SVG 20010904//EN"
 "http://www.w3.org/TR/2001/REC-SVG-20010904/DTD/svg10.dtd">
<svg version="1.0" xmlns="http://www.w3.org/2000/svg"
 width="421.000000pt" height="352.000000pt" viewBox="0 0 421.000000 352.000000"
 preserveAspectRatio="xMidYMid meet">

<g transform="translate(0.000000,352.000000) scale(0.100000,-0.100000)"
fill="#000000" stroke="none">
<path d="M0 1760 l0 -1760 2105 0 2105 0 0 1760 0 1760 -2105 0 -2105 0 0
-1760z m2140 1374 c95 -30 161 -69 234 -135 52 -47 127 -145 142 -184 8 -20
-81 -122 -159 -181 -72 -55 -175 -105 -267 -130 -48 -14 -100 -18 -200 -18
-120 1 -144 4 -220 28 -141 47 -299 140 -300 177 0 27 37 125 66 174 60 103
191 215 304 260 124 48 266 52 400 9z m444 -517 c28 -107 50 -330 41 -414 -18
-178 -10 -157 -73 -201 -113 -79 -261 -134 -395 -148 l-63 -6 -17 44 c-26 66
-100 174 -170 246 -156 160 -326 216 -488 162 -34 -12 -64 -18 -68 -15 -8 9
-8 301 0 310 4 3 39 -15 78 -40 149 -97 279 -135 459 -135 248 0 426 71 587
235 39 40 73 69 77 66 4 -3 18 -50 32 -104z m908 -198 c196 -41 352 -191 403
-385 20 -79 20 -121 -2 -128 -97 -27 -227 -11 -333 41 -140 68 -232 188 -264
346 -19 92 -20 124 -3 130 23 10 146 7 199 -4z m-272 -60 c0 -55 25 -148 61
-227 37 -83 148 -195 237 -240 91 -45 196 -66 302 -60 l87 5 -9 -49 c-15 -83
-23 -96 -63 -104 -20 -3 -104 -4 -188 -2 -178 6 -250 25 -347 90 -69 46 -138
131 -176 217 -27 60 -70 212 -79 281 -7 50 -8 49 95 102 74 37 80 36 80 -13z
m-1515 -138 c140 -68 302 -268 341 -421 34 -133 1 -242 -100 -338 -99 -94
-224 -136 -406 -136 -63 0 -140 6 -170 13 -90 22 -195 76 -250 127 -126 118
-142 262 -49 443 70 136 185 252 314 317 67 34 74 35 160 32 79 -3 100 -7 160
-37z m1280 17 c54 -249 101 -355 204 -458 125 -124 242 -164 488 -165 90 0
163 -2 163 -4 0 -2 -17 -31 -37 -65 -47 -79 -122 -173 -173 -220 -39 -35 -43
-36 -93 -31 -245 28 -397 114 -643 366 -118 122 -214 235 -214 253 0 34 262
346 291 346 5 0 11 -10 14 -22z m-420 -363 c-10 -31 -57 -134 -104 -228 l-86
-172 -132 -2 -133 -2 0 154 0 154 38 6 c144 22 306 75 388 127 21 14 41 24 43
22 2 -1 -5 -28 -14 -59z m-1599 -38 c11 -11 -22 -140 -59 -233 -73 -181 -202
-337 -334 -407 l-71 -37 -21 26 c-61 77 -88 250 -56 360 42 145 148 247 298
289 54 15 229 17 243 2z m1818 -155 c221 -251 429 -393 637 -437 40 -9 74 -17
76 -18 4 -5 -156 -99 -178 -104 -14 -4 -37 10 -77 44 -201 176 -395 253 -744
298 -27 3 -48 8 -48 11 0 2 42 87 93 189 l92 186 25 -29 c14 -16 69 -79 124
-140z m-1822 -267 c-4 -176 9 -236 67 -298 l38 -40 -79 -99 -79 -98 -82 41
c-100 51 -225 130 -255 162 l-23 24 54 31 c128 72 237 191 317 345 23 42 42
77 43 77 1 0 1 -65 -1 -145z m1385 -17 c18 -24 63 -143 78 -208 19 -85 19
-231 -1 -328 -17 -82 -82 -259 -133 -360 l-31 -62 -53 0 c-28 0 -82 3 -118 6
l-66 7 -6 126 c-6 141 -26 252 -63 350 -39 102 -39 98 -7 114 51 27 120 105
137 155 9 26 19 82 23 124 4 59 10 78 22 81 40 11 209 7 218 -5z m318 -24
c125 -25 253 -70 342 -120 80 -46 213 -147 213 -162 0 -4 -44 -29 -97 -56
-229 -112 -331 -201 -403 -349 -40 -84 -74 -196 -86 -288 -4 -27 -11 -49 -17
-49 -5 0 -60 16 -121 34 -61 19 -123 37 -138 40 l-26 6 48 107 c57 129 105
280 121 383 20 131 -3 305 -56 427 -13 28 -21 53 -19 55 6 7 152 -11 239 -28z
m-1457 -369 c110 -46 190 -57 362 -52 120 3 169 9 218 25 l64 20 24 -52 c46
-100 66 -201 71 -356 l5 -146 -108 -12 c-60 -7 -155 -22 -210 -35 l-101 -23
-18 74 c-39 166 -147 312 -281 378 -62 31 -88 38 -160 43 l-86 6 68 83 c37 46
72 81 78 78 6 -3 39 -17 74 -31z m2105 -22 c45 -105 64 -196 53 -256 -6 -31
-10 -35 -61 -46 -118 -27 -209 -90 -255 -180 -21 -42 -42 -153 -34 -176 4 -9
-4 -17 -23 -22 -43 -12 -202 -6 -253 10 l-45 13 3 45 c6 76 48 222 85 295 40
80 97 148 166 198 47 35 312 176 329 176 5 0 21 -26 35 -57z m-2121 -207 c134
-64 235 -206 268 -375 l8 -43 -57 -25 c-47 -21 -67 -24 -126 -21 -88 6 -150
33 -216 95 -61 57 -103 136 -119 223 -10 57 -6 151 7 174 3 4 44 6 92 4 67 -3
99 -10 143 -32z m2148 -166 c0 -25 -55 -116 -97 -161 -46 -49 -130 -109 -153
-109 -19 0 -5 73 26 137 28 59 60 86 143 119 62 26 81 29 81 14z"/>
<path d="M1451 2054 c-31 -40 -27 -80 13 -120 28 -28 42 -34 75 -34 68 0 146
87 95 107 -11 4 -22 -1 -30 -13 -26 -38 -35 -44 -63 -44 -56 0 -84 71 -31 79
52 7 47 51 -5 51 -24 0 -39 -7 -54 -26z"/>
<path d="M1276 1729 c-34 -41 -33 -73 4 -111 27 -26 36 -30 68 -25 104 17 95
167 -10 167 -28 0 -42 -7 -62 -31z m62 -37 c2 -7 -6 -12 -17 -12 -21 0 -27 11
-14 24 9 9 26 2 31 -12z"/>
<path d="M1681 1734 c-30 -38 -27 -80 8 -115 31 -31 59 -36 94 -17 33 17 46
39 47 76 0 74 -104 113 -149 56z m44 -34 c3 -6 -1 -13 -10 -16 -19 -8 -30 0
-20 15 8 14 22 14 30 1z"/>
<path d="M1487 1574 c-27 -27 11 -84 55 -84 30 0 73 43 65 64 -9 23 -22 19
-35 -10 -15 -31 -55 -30 -60 1 -5 25 -16 38 -25 29z"/>
</g>
</svg>
